<?xml version="1.0" encoding="utf-8"?>
<!-- Generator: Adobe Illustrator 22.1.0, SVG Export Plug-In . SVG Version: 6.00 Build 0)  -->
<svg version="1.1" id="Camada_1" xmlns="http://www.w3.org/2000/svg" xmlns:xlink="http://www.w3.org/1999/xlink" x="0px" y="0px"
	 viewBox="0 0 6052.8 6069.4" style="enable-background:new 0 0 6052.8 6069.4;" xml:space="preserve">
<style type="text/css">
	.st0{display:none;fill:#6424AA;}
	.st1{fill:url(#SVGID_1_);}
	.st2{fill:url(#SVGID_2_);}
	.st3{fill:url(#SVGID_3_);}
	.st4{fill:#FFFFFF;}
	.st5{display:none;}
	.st6{display:inline;fill:#6424AA;}
	.st7{display:inline;fill:#FFFFFF;}
</style>
<path class="st0" d="M350.6,850.3c613-246.4,1143.9-459.7,1821.3-732C2592.1,346.5,3204,452.7,3690.2,96.6
	c624.3,265.1,1166.3,495.3,1788.5,759.5c435.1,1685.8-609.1,4032.2-2277.5,4835.9c-167.3,80.6-453.4,47.3-628.6-42.3
	C1002,4846.5,484,3421.3,354.5,1785.5C327.7,1447.8,350.6,1106.2,350.6,850.3z"/>
<linearGradient id="SVGID_1_" gradientUnits="userSpaceOnUse" x1="2976.385" y1="2559.1157" x2="5594.4751" y2="2559.1157" gradientTransform="matrix(1 0 0 -1 0 6070)">
	<stop  offset="0" style="stop-color:#6427AA"/>
	<stop  offset="1" style="stop-color:#732DC4"/>
</linearGradient>
<path class="st1" d="M2976.4,1924.3c249.4,0.5,591.5,78,818.5-72.4c624.3,239.9,1078.5-770.1,1700.7-531
	c435.1,1525.3-609.1,3648.3-2277.5,4375.5c-64.5,28.1-155,40.9-241.7,41.3"/>
<linearGradient id="SVGID_2_" gradientUnits="userSpaceOnUse" x1="358.3714" y1="2559.7561" x2="2976.385" y2="2559.7561" gradientTransform="matrix(1 0 0 -1 0 6070)">
	<stop  offset="0" style="stop-color:#37165E"/>
	<stop  offset="1" style="stop-color:#552291"/>
</linearGradient>
<path class="st2" d="M2976.4,5737.7c-135.8-0.5-281.4-30.9-386.9-79.6C1018.9,4931.4,500.9,3641.9,371.4,2161.8
	c-26.8-305.5-3.9-614.6-3.9-846.2c613-222.9,1134,768.2,1811.4,521.8c224.1,110.1,512.6,448.1,797.5,448.8"/>
<g>
	
		<linearGradient id="SVGID_3_" gradientUnits="userSpaceOnUse" x1="358.3714" y1="2956.0369" x2="5594.4751" y2="2956.0369" gradientTransform="matrix(1 0 0 -1 0 6070)">
		<stop  offset="0" style="stop-color:#6327A8"/>
		<stop  offset="1" style="stop-color:#5A2399"/>
	</linearGradient>
	<path class="st3" d="M367.5,1286.5c613-217.9,1143.9-406.5,1821.3-647.2C2609,841.1,3220.9,935,3707.1,620.1
		c624.3,234.4,1166.3,437.9,1788.5,671.5c435.1,1490.5-609.1,3565.1-2277.5,4275.7c-167.3,71.3-453.4,41.8-628.6-37.4
		C1018.9,4819.8,500.9,3559.7,371.4,2113.4C344.6,1814.8,367.5,1512.8,367.5,1286.5z"/>
	<path class="st4" d="M2072.5,2032.5c417.8,0,621.8,199,621.8,199l-177.7,207.9c0,0-177.7-139.3-437-139.3
		c-295.3,0-547.4,214.5-547.4,533c0,342.8,254.5,552.9,559.4,552.9c271.3,0,432.2-163.7,432.2-163.7v-117.2
		c0-33.2-19.2-48.7-52.8-48.7h-103.2v-245.5h276.1c115.2,0,163.3,44.2,163.3,148.2v670.1h-268.9V3554c0-33.2,2.4-66.3,2.4-66.3h-4.8
		c0,0-182.5,168.1-501.8,168.1c-446.6,0-828.3-314-828.3-820.5C1205.8,2384.2,1577.9,2032.5,2072.5,2032.5z"/>
	<path class="st4" d="M3866,2032.5c501.8,0,881.1,351.6,881.1,800.6c0,462.2-379.3,822.7-881.1,822.7s-881.1-360.5-881.1-822.7
		C2984.8,2384.2,3364.2,2032.5,3866,2032.5z M3866,3386c307.3,0,554.6-238.8,554.6-552.9c0-300.8-247.3-530.8-554.6-530.8
		s-554.6,230-554.6,530.8C3311.4,3147.1,3558.6,3386,3866,3386z"/>
</g>
<g class="st5">
	<path class="st6" d="M-272.4,603c613-246.4,1143.9-459.7,1821.3-732C1969.1,99.2,2581,205.4,3067.2-150.7
		c624.3,265.1,1166.3,495.3,1788.5,759.5c435.1,1685.8-609.1,4032.2-2277.5,4835.9c-167.3,80.6-453.4,47.3-628.6-42.3
		C379,4599.2-139,3174-268.5,1538.2C-295.3,1200.5-272.4,858.9-272.4,603z"/>
	<path class="st7" d="M1432.6,1446.8c417.8,0,621.8,225.1,621.8,225.1L1876.8,1907c0,0-177.7-157.6-437-157.6
		c-295.3,0-547.4,242.6-547.4,602.8c0,387.7,254.5,625.3,559.4,625.3c271.3,0,432.2-185.1,432.2-185.1v-132.6
		c0-37.5-19.2-55-52.8-55H1728v-277.6h276c115.2,0,163.3,50,163.3,167.6v757.9h-268.9v-85c0-37.5,2.4-75,2.4-75h-4.8
		c0,0-182.5,190.1-501.8,190.1c-446.6,0-828.3-355.2-828.3-928C565.9,1844.5,938,1446.8,1432.6,1446.8z"/>
	<path class="st7" d="M3226.1,1446.8c501.8,0,881.1,397.7,881.1,905.4c0,522.8-379.3,930.5-881.1,930.5S2345,2875,2345,2352.2
		C2344.9,1844.5,2724.3,1446.8,3226.1,1446.8z M3226.1,2977.5c307.3,0,554.6-270.1,554.6-625.3c0-340.2-247.3-600.3-554.6-600.3
		s-554.6,260.1-554.6,600.3C2671.5,2707.4,2918.7,2977.5,3226.1,2977.5z"/>
</g>
</svg>
