<?xml version="1.0" encoding="utf-8"?>
<!-- Generator: Adobe Illustrator 19.1.0, SVG Export Plug-In . SVG Version: 6.00 Build 0)  -->
<svg version="1.1" id="Camada_1" xmlns="http://www.w3.org/2000/svg" xmlns:xlink="http://www.w3.org/1999/xlink" x="0px" y="0px"
	 viewBox="0 0 2508.6 2309.9" style="enable-background:new 0 0 2508.6 2309.9;" xml:space="preserve">
<style type="text/css">
	.st0{fill:#CECECE;stroke:#CECECE;stroke-width:3;stroke-miterlimit:10;}
	.st1{fill:#CECECE;stroke:#CECECE;stroke-width:2.8346;stroke-miterlimit:10;}
	.st2{clip-path:url(#SVGID_2_);fill:#CECECE;stroke:#CECECE;stroke-width:2.8346;stroke-miterlimit:10;}
	.st3{fill:#6424AA;}
	.st4{fill:#FFFFFF;}
	.st5{fill:#78CEE0;}
	.st6{fill:url(#SVGID_3_);}
	.st7{fill:#B8E63C;}
	.st8{fill:url(#SVGID_4_);}
	.st9{fill:#75B9CB;}
	.st10{fill:#583284;}
	.st11{fill:#CECECE;stroke:#CECECE;stroke-width:90.7087;stroke-miterlimit:10;}
	.st12{fill:#FFFFFF;stroke:#481A84;stroke-width:99.2126;stroke-miterlimit:10;}
	.st13{fill:#CECECE;stroke:#CECECE;stroke-width:8.5039;stroke-miterlimit:10;}
	.st14{fill:#FFFFFF;stroke:#481A84;stroke-width:22.6772;stroke-miterlimit:10;}
	.st15{fill:#4F268E;}
	.st16{fill:#6424AA;stroke:#481A84;stroke-width:22.6772;stroke-miterlimit:10;}
	.st17{clip-path:url(#SVGID_6_);fill:#6D38B2;}
	.st18{clip-path:url(#SVGID_8_);fill:#4F268E;}
	.st19{fill:#D9C6F7;}
	.st20{fill:none;stroke:#481A84;stroke-width:17.0079;stroke-miterlimit:10;}
	.st21{clip-path:url(#SVGID_10_);fill:#6D38B2;}
	.st22{clip-path:url(#SVGID_12_);fill:#4F268E;}
	.st23{clip-path:url(#SVGID_14_);fill:#6D38B2;}
	.st24{clip-path:url(#SVGID_16_);fill:#4F268E;}
	.st25{fill:#6424AA;stroke:#481A84;stroke-width:28;stroke-miterlimit:10;}
	.st26{fill:none;stroke:#481A84;stroke-width:28;stroke-miterlimit:10;}
	.st27{clip-path:url(#SVGID_18_);fill:#6D38B2;}
	.st28{clip-path:url(#SVGID_20_);fill:#4F268E;}
	.st29{display:none;}
	.st30{display:inline;fill:#CECECE;stroke:#CECECE;stroke-width:39.685;stroke-miterlimit:10;}
	.st31{display:inline;fill:#6424AA;stroke:#481A84;stroke-width:34.0157;stroke-miterlimit:10;}
	.st32{display:inline;}
	.st33{clip-path:url(#SVGID_22_);fill:#6D38B2;}
	.st34{clip-path:url(#SVGID_24_);fill:#4F268E;}
	.st35{display:inline;fill:#D9C6F7;}
	.st36{display:inline;fill:none;stroke:#481A84;stroke-width:34.0157;stroke-miterlimit:10;}
	.st37{fill:#6424AA;stroke:#481A84;stroke-width:99.2126;stroke-miterlimit:10;}
	.st38{clip-path:url(#SVGID_26_);fill:#6D38B2;}
	.st39{clip-path:url(#SVGID_28_);fill:#4F268E;}
	.st40{fill:none;stroke:#481A84;stroke-width:99.2126;stroke-miterlimit:10;}
	.st41{fill:#CECECE;stroke:#CECECE;stroke-width:28.3465;stroke-miterlimit:10;}
	.st42{fill:#FFFFFF;stroke:#481A84;stroke-width:28.3465;stroke-miterlimit:10;}
	.st43{fill:#6424AA;stroke:#481A84;stroke-width:34.0157;stroke-miterlimit:10;}
	.st44{clip-path:url(#SVGID_30_);fill:#6D38B2;}
	.st45{clip-path:url(#SVGID_32_);fill:#4F268E;}
	.st46{fill:none;stroke:#481A84;stroke-width:34.0157;stroke-miterlimit:10;}
</style>
<g class="st29">
	<path class="st30" d="M2127,623.3c7.6-31.5,18-62.1,37.3-87.9c29.3-39.2,75.3-61.7,119.7-82.1c44.5-20.4,90.9-41.2,122.7-78.3
		c31.8-37.2,44.3-96,14.4-134.8c-41.4-53.9-124.5-35.4-192.1-42.9c-91.1-10.1-171.1-76.4-262.7-75.3
		c-117.6,1.4-202.7,110-262.4,211.3C1642.7,437,1588.2,544.5,1540.7,655c-32.2,74.9-62.9,153.8-122.6,209.2
		c-53.3,49.5-124.1,74.9-193.7,95.9C850.6,1072.9,302.1,1109,155.7,1542.7c-53.1,157.4-46.9,336.2,26.9,486.1
		c4.5,9.1,9.8,18.7,18.9,23.2c29.8,14.6,51.2-34.4,82.5-45.3c29.3-10.2,58.2,15.9,75.1,41.9s33.4,57.1,63.5,64.5
		c49.9,12.3,85.3-48.3,95.8-98.7c30.4-146.7,7-303.9-64.8-435.4c78.5,30.9,92.6,138.7,156.9,193.3c32.1,27.3,74.3,39.1,115.5,48
		c88.4,19.2,179,28.6,269.5,28.1c28.2-0.2,57.3-1.5,82.7-13.6c37.7-17.9,60.7-56,83.7-90.8c80-121.3,184.2-226.5,304.6-307.8
		c-132.5,154.7-238.8,331.8-312.9,521.6c-10.4,26.7-18,62.4,4.9,79.7c14.7,11.2,35.4,8.5,53.5,4.8c154.3-31.8,300-105,417.6-209.9
		c48.5-43.2,98.9-94.8,163.8-97.5c30.2-1.3,59.5,8.5,88.4,17.3c116.9,35.5,238.4,55.6,360.5,59.7c18.5,0.6,40.2-0.6,51-15.7
		c13.2-18.5,1.1-44-12-62.5c-44.7-63.6-101-119.1-165.2-162.9c-56-38.2-123.7-75-138.8-141.1c-7.1-30.9-0.8-63.2,5.5-94.2
		c45.3-224.7,90.7-449.4,136-674.2C2121.4,648.6,2124,635.9,2127,623.3z"/>
	<path class="st31" d="M2089.3,580c7.6-31.5,18-62.1,37.3-87.9c29.3-39.2,75.3-61.7,119.7-82.1c44.5-20.4,90.9-41.2,122.7-78.3
		c31.8-37.2,44.3-96,14.4-134.8c-41.4-53.9-124.5-35.4-192.1-42.9c-91.1-10.1-171.1-76.4-262.7-75.3
		c-117.6,1.4-202.7,110-262.4,211.3c-61.1,103.6-115.6,211.1-163.1,321.7c-32.2,74.9-62.9,153.8-122.6,209.2
		c-53.3,49.5-124.1,74.9-193.7,95.9C812.9,1029.6,264.4,1065.7,118,1499.4c-53.1,157.4-46.9,336.2,26.9,486.1
		c4.5,9.1,9.8,18.7,18.9,23.2c29.8,14.6,51.2-34.4,82.5-45.3c29.3-10.2,58.2,15.9,75.1,41.9c16.9,26,33.4,57.1,63.5,64.5
		c49.9,12.3,85.3-48.3,95.8-98.7c30.4-146.7,7-303.9-64.8-435.4c78.5,30.9,92.6,138.7,156.9,193.3c32.1,27.3,74.3,39.1,115.5,48
		c88.4,19.2,179,28.6,269.5,28.1c28.2-0.2,57.3-1.5,82.7-13.6c37.7-17.9,60.7-56,83.7-90.8c80-121.3,184.2-226.5,304.6-307.8
		c-132.5,154.7-238.8,331.8-312.9,521.6c-10.4,26.7-18,62.4,4.9,79.7c14.7,11.2,35.4,8.5,53.5,4.8c154.3-31.8,300-105,417.6-209.9
		c48.5-43.2,98.9-94.8,163.8-97.5c30.2-1.3,59.5,8.5,88.4,17.3c116.9,35.5,238.4,55.6,360.5,59.7c18.5,0.6,40.2-0.6,51-15.7
		c13.2-18.5,1.1-44-12-62.5c-44.7-63.6-101-119.1-165.2-162.9c-56-38.2-123.7-75-138.8-141.1c-7.1-30.9-0.8-63.2,5.5-94.2
		c45.3-224.7,90.7-449.4,136-674.2C2083.7,605.4,2086.3,592.7,2089.3,580z M1911.9,304.3c-29.1,1.5-49-14.8-50.9-44
		c-2.2-32.1,16.1-52.5,48.5-52.6c28.7-0.1,45.7,17.5,48.3,47.1C1956.4,284.4,1941.2,302.8,1911.9,304.3z"/>
	<g class="st32">
		<defs>
			<path id="SVGID_21_" d="M2089.2,580.2c7.6-31.5,18-62.1,37.3-87.9c29.3-39.2,75.3-61.7,119.7-82.1
				c44.5-20.4,90.9-41.2,122.7-78.3c31.8-37.2,44.3-96,14.4-134.8c-41.4-53.9-124.5-35.4-192.1-42.9
				c-91.1-10.1-171.1-76.4-262.7-75.3c-117.6,1.4-202.7,110-262.4,211.3c-61.1,103.6-115.6,211.1-163.1,321.7
				c-32.2,74.9-62.9,153.8-122.6,209.2c-53.3,49.5-124.1,74.9-193.7,95.9c-373.9,112.7-922.4,148.8-1068.8,582.5
				C64.8,1657,71,1835.9,144.8,1985.7c4.5,9.1,9.8,18.7,18.9,23.2c29.8,14.6,51.2-34.4,82.5-45.3c29.3-10.2,58.2,15.9,75.1,41.9
				s33.4,57.1,63.5,64.5c49.9,12.3,85.3-48.3,95.8-98.7c30.4-146.7,7-303.9-64.8-435.4c78.5,30.9,92.6,138.7,156.9,193.3
				c32.1,27.3,74.3,39.1,115.5,48c88.4,19.2,179,28.6,269.5,28.1c28.2-0.2,57.3-1.5,82.7-13.6c37.7-17.9,60.7-56,83.7-90.8
				c80-121.3,184.2-226.5,304.6-307.8c-132.5,154.7-238.8,331.8-312.9,521.6c-10.4,26.7-18,62.4,4.9,79.7
				c14.7,11.2,35.4,8.5,53.5,4.8c154.3-31.8,300-105,417.6-209.9c48.5-43.2,98.9-94.8,163.8-97.5c30.2-1.3,59.5,8.5,88.4,17.3
				c116.9,35.5,238.4,55.6,360.5,59.7c18.5,0.6,40.2-0.6,51-15.7c13.2-18.5,1.1-44-12-62.5c-44.7-63.6-101-119.1-165.2-162.9
				c-56-38.2-123.7-75-138.8-141.1c-7.1-30.9-0.8-63.2,5.5-94.2c45.3-224.7,90.7-449.4,136-674.2
				C2083.6,605.6,2086.2,592.8,2089.2,580.2z M1911.8,304.5c-29.1,1.5-49-14.8-50.9-44c-2.2-32.1,16.1-52.5,48.5-52.6
				c28.7-0.1,45.7,17.5,48.3,47.1C1956.3,284.5,1941.1,303,1911.8,304.5z"/>
		</defs>
		<clipPath id="SVGID_2_">
			<use xlink:href="#SVGID_21_"  style="overflow:visible;"/>
		</clipPath>
		<path style="clip-path:url(#SVGID_2_);fill:#6D38B2;" d="M1487.7,689.6l-101.4,81.5l0,0l-336.6,104.8
			c0,0-1194.4,469.9-606.7,303.6s787.2-63.5,892.8-104.5c43.2-16.8,76.8-45,101.4-72.4C1567,885,1487.7,689.6,1487.7,689.6z"/>
	</g>
	<g class="st32">
		<defs>
			<path id="SVGID_23_" d="M1518,1315.7c0,0-208.8,267.3-248.8,405.9c0,0-88.1,167.2,23.3,145.4s252.2-116.3,316.4-185
				s135.6-48.5,135.6-48.5s143,39.1,306.5,41.4c163.6,2.3-101.5-226.8-139.3-241.5c-37.9-14.6-203-119.2-108.3-253
				c94.7-133.8,224.5-317,224.5-317l48.2,54.2l218.3,404l45.6,252.9v270.9l-380,23.6l-394.6,136.2l-359.8,152.5l-194.5-150
				l62.9-191.2l172.1-275.3L1518,1315.7z"/>
		</defs>
		<clipPath id="SVGID_3_">
			<use xlink:href="#SVGID_23_"  style="overflow:visible;"/>
		</clipPath>
		<path style="clip-path:url(#SVGID_3_);fill:#4F268E;" d="M2086.2,576.8c7.6-31.5,18-62.1,37.3-87.9
			c29.3-39.2,75.3-61.7,119.7-82.1c44.5-20.4,90.9-41.2,122.7-78.3c31.8-37.2,44.3-96,14.4-134.8c-41.4-53.9-124.5-35.4-192.1-42.9
			c-91.1-10.1-171.1-76.4-262.7-75.3c-117.6,1.4-202.7,110-262.4,211.3c-61.1,103.6-115.6,211.1-163.1,321.7
			c-32.2,74.9-62.9,153.8-122.6,209.2c-53.3,49.5-124.1,74.9-193.7,95.9c-373.9,112.7-922.4,148.8-1068.8,582.5
			c-53.1,157.4-46.9,336.2,26.9,486.1c4.5,9.1,9.8,18.7,18.9,23.2c29.8,14.6,51.2-34.4,82.5-45.3c29.3-10.2,58.2,15.9,75.1,41.9
			c16.9,26,33.4,57.1,63.5,64.5c49.9,12.3,85.3-48.3,95.8-98.7c30.4-146.7,7-303.9-64.8-435.4c78.5,30.9,92.6,138.7,156.9,193.3
			c32.1,27.3,74.3,39.1,115.5,48c88.4,19.2,179,28.6,269.5,28.1c28.2-0.2,57.3-1.5,82.7-13.6c37.7-17.9,60.7-56,83.7-90.8
			c80-121.3,184.2-226.5,304.6-307.8c-132.5,154.7-238.8,331.8-312.9,521.6c-10.4,26.7-18,62.4,4.9,79.7
			c14.7,11.2,35.4,8.5,53.5,4.8c154.3-31.8,300-105,417.6-209.9c48.5-43.2,98.9-94.8,163.8-97.5c30.2-1.3,59.5,8.5,88.4,17.3
			c116.9,35.5,238.4,55.6,360.5,59.7c18.5,0.6,40.2-0.6,51-15.7c13.2-18.5,1.1-44-12-62.5c-44.7-63.6-101-119.1-165.2-162.9
			c-56-38.2-123.7-75-138.8-141.1c-7.1-30.9-0.8-63.2,5.5-94.2c45.3-224.7,90.7-449.4,136-674.2
			C2080.6,602.1,2083.2,589.4,2086.2,576.8z M1908.8,301c-29.1,1.5-49-14.8-50.9-44c-2.2-32.1,16.1-52.5,48.5-52.6
			c28.7-0.1,45.7,17.5,48.3,47.1C1953.3,281.1,1938.1,299.5,1908.8,301z"/>
	</g>
	<path class="st35" d="M957.7,992.4c0,0,476.1,7.2,454.4-183.3l-54.7,25.7l-132.8,66l-154.5,59.5l-136.5,35.9L957.7,992.4z"/>
	<path class="st36" d="M2089.2,580c7.6-31.5,18-62.1,37.3-87.9c29.3-39.2,75.3-61.7,119.7-82.1c44.5-20.4,90.9-41.2,122.7-78.3
		c31.8-37.2,44.3-96,14.4-134.8c-41.4-53.9-124.5-35.4-192.1-42.9c-91.1-10.1-171.1-76.4-262.7-75.3
		c-117.6,1.4-202.7,110-262.4,211.3c-61.1,103.6-115.6,211.1-163.1,321.7c-32.2,74.9-62.9,153.8-122.6,209.2
		c-53.3,49.5-124.1,74.9-193.7,95.9c-373.9,112.7-922.4,148.8-1068.8,582.5c-53.1,157.4-46.9,336.2,26.9,486.1
		c4.5,9.1,9.8,18.7,18.9,23.2c29.8,14.6,51.2-34.4,82.5-45.3c29.3-10.2,58.2,15.9,75.1,41.9c16.9,26,33.4,57.1,63.5,64.5
		c49.9,12.3,85.3-48.3,95.8-98.7c30.4-146.7,7-303.9-64.8-435.4c78.5,30.9,92.6,138.7,156.9,193.3c32.1,27.3,74.3,39.1,115.5,48
		c88.4,19.2,179,28.6,269.5,28.1c28.2-0.2,57.3-1.5,82.7-13.6c37.7-17.9,60.7-56,83.7-90.8c80-121.3,184.2-226.5,304.6-307.8
		c-132.5,154.7-238.8,331.8-312.9,521.6c-10.4,26.7-18,62.4,4.9,79.7c14.7,11.2,35.4,8.5,53.5,4.8c154.3-31.8,300-105,417.6-209.9
		c48.5-43.2,98.9-94.8,163.8-97.5c30.2-1.3,59.5,8.5,88.4,17.3c116.9,35.5,238.4,55.6,360.5,59.7c18.5,0.6,40.2-0.6,51-15.7
		c13.2-18.5,1.1-44-12-62.5c-44.7-63.6-101-119.1-165.2-162.9c-56-38.2-123.7-75-138.8-141.1c-7.1-30.9-0.8-63.2,5.5-94.2
		c45.3-224.7,90.7-449.4,136-674.2C2083.6,605.4,2086.2,592.7,2089.2,580z M1911.8,304.3c-29.1,1.5-49-14.8-50.9-44
		c-2.2-32.1,16.1-52.5,48.5-52.6c28.7-0.1,45.7,17.5,48.3,47.1C1956.3,284.4,1941.1,302.8,1911.8,304.3z"/>
</g>
<g>
	<path class="st15" d="M2362,231.6c0,0,98.3,111.1-193.6,274.2l149.4-56l74.7-63.9l44.8-84.5l-16.3-47.2l-43.5-32.4L2362,231.6z"/>
	<path class="st15" d="M184.5,1644c0,0,34.7,265.6,123.7,262.8c89-2.8,129.7,101.3,129.7,101.3s36.9,63.4,65.3,39.8l-6.6,39.8
		l-96.6-32.2l-52.1-65.3l-54.4,12l-60.2,25l-55.8-86.2l-27.5-95.6l-6.6-107l30.3-100"/>
	<path class="st41" d="M2168.1,667.9c7.5-31,17.7-61.2,36.7-86.5c28.9-38.6,74.1-60.8,117.9-80.8c43.8-20.1,89.4-40.5,120.8-77.1
		c31.3-36.6,43.6-94.5,14.2-132.7c-40.8-53-122.6-34.9-189.1-42.2c-89.7-9.9-168.4-75.2-258.6-74.1
		c-115.8,1.4-199.5,108.3-258.3,208c-60.2,102-113.8,207.8-160.6,316.6c-31.7,73.7-61.9,151.4-120.7,206
		c-52.4,48.7-122.1,73.7-190.6,94.4c-368.1,110.9-907.9,146.4-1052,573.4c-52.3,154.9-46.2,330.9,26.5,478.4
		c4.4,9,9.6,18.4,18.6,22.9c29.3,14.4,50.4-33.9,81.2-44.6c28.8-10,57.3,15.7,73.9,41.2c16.6,25.6,32.9,56.2,62.5,63.5
		c49.1,12.1,84-47.6,94.3-97.1c29.9-144.4,6.9-299.1-63.8-428.5c77.3,30.4,91.1,136.5,154.4,190.3c31.6,26.9,73.2,38.5,113.7,47.2
		c87,18.9,176.2,28.2,265.2,27.7c27.7-0.2,56.4-1.5,81.4-13.4c37.1-17.7,59.8-55.1,82.4-89.4c78.7-119.4,181.3-223,299.8-303
		c-130.5,152.3-235.1,326.6-308,513.4c-10.3,26.3-17.7,61.4,4.8,78.4c14.5,11,34.8,8.4,52.7,4.7c151.9-31.3,295.2-103.4,411-206.6
		c47.7-42.6,97.4-93.3,161.3-96c29.7-1.3,58.6,8.4,87,17c115,34.9,234.7,54.7,354.8,58.8c18.3,0.6,39.6-0.6,50.2-15.4
		c13-18.2,1.1-43.3-11.8-61.6c-44-62.6-99.4-117.2-162.6-160.3c-55.1-37.6-121.8-73.9-136.6-138.9c-7-30.4-0.8-62.2,5.4-92.8
		c44.6-221.2,89.3-442.4,133.9-663.6C2162.5,692.8,2165.1,680.3,2168.1,667.9z"/>
	<path class="st43" d="M2131,625.3c7.5-31,17.7-61.2,36.7-86.5c28.9-38.6,74.1-60.8,117.9-80.8c43.8-20.1,89.4-40.5,120.8-77.1
		s43.6-94.5,14.2-132.7c-40.8-53-122.6-34.9-189.1-42.2c-89.7-9.9-168.4-75.2-258.6-74.1c-115.8,1.4-199.5,108.3-258.3,208
		c-60.2,102-113.8,207.8-160.6,316.6c-31.7,73.7-61.9,151.4-120.7,206c-52.4,48.7-122.1,73.7-190.6,94.4
		c-368.1,110.9-907.9,146.4-1052,573.4c-52.3,154.9-46.2,330.9,26.5,478.4c4.4,9,9.6,18.4,18.6,22.9c29.3,14.4,50.4-33.9,81.2-44.6
		c28.8-10,57.3,15.7,73.9,41.2c16.6,25.6,32.9,56.2,62.5,63.5c49.1,12.1,84-47.6,94.3-97.1c29.9-144.4,6.9-299.1-63.8-428.5
		c77.3,30.4,91.1,136.5,154.4,190.3c31.6,26.9,73.2,38.5,113.7,47.2c87,18.9,176.2,28.2,265.2,27.7c27.7-0.2,56.4-1.5,81.4-13.4
		c37.1-17.7,59.8-55.1,82.4-89.4c78.7-119.4,181.3-223,299.8-303c-130.5,152.3-235.1,326.6-308,513.4c-10.3,26.3-17.7,61.4,4.8,78.4
		c14.5,11,34.8,8.4,52.7,4.7c151.9-31.3,295.2-103.4,411-206.6c47.7-42.6,97.4-93.3,161.3-96c29.7-1.3,58.6,8.4,87,17
		c115,34.9,234.7,54.7,354.8,58.8c18.3,0.6,39.6-0.6,50.2-15.4c13-18.2,1.1-43.3-11.8-61.6c-44-62.6-99.4-117.2-162.6-160.3
		c-55.1-37.6-121.8-73.9-136.6-138.9c-7-30.4-0.8-62.2,5.4-92.8c44.6-221.2,89.3-442.4,133.9-663.6
		C2125.5,650.3,2128,637.7,2131,625.3z M1956.4,353.9c-28.7,1.5-48.2-14.6-50.1-43.3c-2.1-31.6,15.9-51.7,47.7-51.8
		c28.3-0.1,45,17.2,47.5,46.4C2000.2,334.3,1985.3,352.4,1956.4,353.9z"/>
	<g>
		<defs>
			<path id="SVGID_29_" d="M2130.9,625.5c7.5-31,17.7-61.2,36.7-86.5c28.9-38.6,74.1-60.8,117.9-80.8
				c43.8-20.1,89.4-40.5,120.8-77.1s43.6-94.5,14.2-132.7c-40.8-53-122.6-34.9-189.1-42.2c-89.7-9.9-168.4-75.2-258.6-74.1
				c-115.8,1.4-199.5,108.3-258.3,208c-60.2,102-113.8,207.8-160.6,316.6c-31.7,73.7-61.9,151.4-120.7,206
				c-52.4,48.7-122.1,73.7-190.6,94.4c-368.1,110.9-907.9,146.4-1052,573.4c-52.3,154.9-46.2,330.9,26.5,478.4
				c4.4,9,9.6,18.4,18.6,22.9c29.3,14.4,50.4-33.9,81.2-44.6c28.8-10,57.3,15.7,73.9,41.2c16.6,25.6,32.9,56.2,62.5,63.5
				c49.1,12.1,84-47.6,94.3-97.1c29.9-144.4,6.9-299.1-63.8-428.5c77.3,30.4,91.1,136.5,154.4,190.3c31.6,26.9,73.2,38.5,113.7,47.2
				c87,18.9,176.2,28.2,265.2,27.7c27.7-0.2,56.4-1.5,81.4-13.4c37.1-17.7,59.8-55.1,82.4-89.4c78.7-119.4,181.3-223,299.8-303
				c-130.5,152.3-235.1,326.6-308,513.4c-10.3,26.3-17.7,61.4,4.8,78.4c14.5,11,34.8,8.4,52.7,4.7c151.9-31.3,295.2-103.4,411-206.6
				c47.7-42.6,97.4-93.3,161.3-96c29.7-1.3,58.6,8.4,87,17c115,34.9,234.7,54.7,354.8,58.8c18.3,0.6,39.6-0.6,50.2-15.4
				c13-18.2,1.1-43.3-11.8-61.6c-44-62.6-99.4-117.2-162.6-160.3c-55.1-37.6-121.8-73.9-136.6-138.9c-7-30.4-0.8-62.2,5.4-92.8
				c44.6-221.2,89.3-442.4,133.9-663.6C2125.3,650.5,2127.9,637.9,2130.9,625.5z M1956.3,354.1c-28.7,1.5-48.2-14.6-50.1-43.3
				c-2.1-31.6,15.9-51.7,47.7-51.8c28.3-0.1,45,17.2,47.5,46.4C2000.1,334.5,1985.1,352.6,1956.3,354.1z"/>
		</defs>
		<clipPath id="SVGID_4_">
			<use xlink:href="#SVGID_29_"  style="overflow:visible;"/>
		</clipPath>
		<path style="clip-path:url(#SVGID_4_);fill:#6D38B2;" d="M1538.9,733.2l-99.8,80.2l0,0l-331.4,103.2c0,0-1175.7,462.5-597.2,298.8
			s774.8-62.5,878.8-102.8c42.5-16.5,75.6-44.2,99.8-71.3C1616.9,925.5,1538.9,733.2,1538.9,733.2z"/>
	</g>
	<g>
		<defs>
			<path id="SVGID_31_" d="M1568.6,1349.4c0,0-205.6,263.1-244.9,399.5c0,0-86.7,164.5,22.9,143.1
				c109.7-21.5,248.2-114.4,311.4-182.1c63.2-67.6,133.5-47.7,133.5-47.7s140.7,38.5,301.7,40.7s-99.9-223.3-137.2-237.7
				c-37.3-14.4-199.8-117.3-106.6-249c93.2-131.7,221-312.1,221-312.1l47.5,53.3l214.5,397.6l44.5,249v266.7l-373.6,23.3
				L1615.2,2028L1261.1,2178l-191.4-147.7l62-188.2l169.4-270.9L1568.6,1349.4z"/>
		</defs>
		<clipPath id="SVGID_6_">
			<use xlink:href="#SVGID_31_"  style="overflow:visible;"/>
		</clipPath>
		<path style="clip-path:url(#SVGID_6_);fill:#4F268E;" d="M2128,622.1c7.5-31,17.7-61.2,36.7-86.5c28.9-38.6,74.1-60.8,117.9-80.8
			c43.8-20.1,89.4-40.5,120.8-77.1s43.6-94.5,14.2-132.7c-40.8-53-122.6-34.9-189.1-42.2c-89.7-9.9-168.4-75.2-258.6-74.1
			c-115.8,1.4-199.5,108.3-258.3,208c-60.2,102-113.8,207.8-160.6,316.6c-31.7,73.7-61.9,151.4-120.7,206
			c-52.4,48.7-122.1,73.7-190.6,94.4c-368.1,110.9-907.9,146.4-1052,573.4c-52.3,154.9-46.2,330.9,26.5,478.4
			c4.4,9,9.6,18.4,18.6,22.9c29.3,14.4,50.4-33.9,81.2-44.6c28.8-10,57.3,15.7,73.9,41.2c16.6,25.6,32.9,56.2,62.5,63.5
			c49.1,12.1,84-47.6,94.3-97.1c29.9-144.4,6.9-299.1-63.8-428.5c77.3,30.4,91.1,136.5,154.4,190.3c31.6,26.9,73.2,38.5,113.7,47.2
			c87,18.9,176.2,28.2,265.2,27.7c27.7-0.2,56.4-1.5,81.4-13.4c37.1-17.7,59.8-55.1,82.4-89.4c78.7-119.4,181.3-223,299.8-303
			c-130.5,152.3-235.1,326.6-308,513.4c-10.3,26.3-17.7,61.4,4.8,78.4c14.5,11,34.8,8.4,52.7,4.7c151.9-31.3,295.2-103.4,411-206.6
			c47.7-42.6,97.4-93.3,161.3-96c29.7-1.3,58.6,8.4,87,17c115,34.9,234.7,54.7,354.8,58.8c18.3,0.6,39.6-0.6,50.2-15.4
			c13-18.2,1.1-43.3-11.8-61.6c-44-62.6-99.4-117.2-162.6-160.3c-55.1-37.6-121.8-73.9-136.6-138.9c-7-30.4-0.8-62.2,5.4-92.8
			c44.6-221.2,89.3-442.4,133.9-663.6C2122.4,647,2125,634.5,2128,622.1z M1953.3,350.7c-28.7,1.5-48.2-14.6-50.1-43.3
			c-2.1-31.6,15.9-51.7,47.7-51.8c28.3-0.1,45,17.2,47.5,46.4C1997.1,331,1982.2,349.2,1953.3,350.7z"/>
	</g>
	<path class="st19" d="M1017.1,1031.2c0,0,468.6,7.1,447.3-180.4l-53.9,25.3l-130.7,64.9l-152.1,58.6L993.4,1035L1017.1,1031.2z"/>
	<path class="st15" d="M184.5,1644c0,0,34.7,265.6,123.7,262.8c89-2.8,129.7,101.3,129.7,101.3s36.9,63.4,65.3,39.8l-6.6,39.8
		l-96.6-32.2l-52.1-65.3l-54.4,12l-60.2,25l-55.8-86.2l-27.5-95.6l-6.6-107l30.3-100"/>
	<path class="st46" d="M2130.9,625.3c7.5-31,17.7-61.2,36.7-86.5c28.9-38.6,74.1-60.8,117.9-80.8c43.8-20.1,89.4-40.5,120.8-77.1
		s43.6-94.5,14.2-132.7c-40.8-53-122.6-34.9-189.1-42.2c-89.7-9.9-168.4-75.2-258.6-74.1c-115.8,1.4-199.5,108.3-258.3,208
		c-60.2,102-113.8,207.8-160.6,316.6c-31.7,73.7-61.9,151.4-120.7,206c-52.4,48.7-122.1,73.7-190.6,94.4
		c-368.1,110.9-907.9,146.4-1052,573.4c-52.3,154.9-46.2,330.9,26.5,478.4c4.4,9,9.6,18.4,18.6,22.9c29.3,14.4,50.4-33.9,81.2-44.6
		c28.8-10,57.3,15.7,73.9,41.2c16.6,25.6,32.9,56.2,62.5,63.5c49.1,12.1,84-47.6,94.3-97.1c29.9-144.4,6.9-299.1-63.8-428.5
		c77.3,30.4,91.1,136.5,154.4,190.3c31.6,26.9,73.2,38.5,113.7,47.2c87,18.9,176.2,28.2,265.2,27.7c27.7-0.2,56.4-1.5,81.4-13.4
		c37.1-17.7,59.8-55.1,82.4-89.4c78.7-119.4,181.3-223,299.8-303c-130.5,152.3-235.1,326.6-308,513.4c-10.3,26.3-17.7,61.4,4.8,78.4
		c14.5,11,34.8,8.4,52.7,4.7c151.9-31.3,295.2-103.4,411-206.6c47.7-42.6,97.4-93.3,161.3-96c29.7-1.3,58.6,8.4,87,17
		c115,34.9,234.7,54.7,354.8,58.8c18.3,0.6,39.6-0.6,50.2-15.4c13-18.2,1.1-43.3-11.8-61.6c-44-62.6-99.4-117.2-162.6-160.3
		c-55.1-37.6-121.8-73.9-136.6-138.9c-7-30.4-0.8-62.2,5.4-92.8c44.6-221.2,89.3-442.4,133.9-663.6
		C2125.3,650.3,2127.9,637.7,2130.9,625.3z M1956.3,353.9c-28.7,1.5-48.2-14.6-50.1-43.3c-2.1-31.6,15.9-51.7,47.7-51.8
		c28.3-0.1,45,17.2,47.5,46.4C2000.1,334.3,1985.1,352.4,1956.3,353.9z"/>
</g>
</svg>
