<?xml version="1.0" encoding="utf-8"?>
<!-- Generator: Adobe Illustrator 19.1.0, SVG Export Plug-In . SVG Version: 6.00 Build 0)  -->
<svg version="1.1" id="Camada_1" xmlns="http://www.w3.org/2000/svg" xmlns:xlink="http://www.w3.org/1999/xlink" x="0px" y="0px"
	 viewBox="0 0 2593.7 2309.9" style="enable-background:new 0 0 2593.7 2309.9;" xml:space="preserve">
<style type="text/css">
	.st0{fill:#CECECE;stroke:#CECECE;stroke-width:3;stroke-miterlimit:10;}
	.st1{fill:#CECECE;stroke:#CECECE;stroke-width:2.8346;stroke-miterlimit:10;}
	.st2{clip-path:url(#SVGID_2_);fill:#CECECE;stroke:#CECECE;stroke-width:2.8346;stroke-miterlimit:10;}
	.st3{fill:#6424AA;}
	.st4{fill:#FFFFFF;}
	.st5{fill:#78CEE0;}
	.st6{fill:url(#SVGID_3_);}
	.st7{fill:#B8E63C;}
	.st8{fill:url(#SVGID_4_);}
	.st9{fill:#75B9CB;}
	.st10{fill:#583284;}
	.st11{fill:#CECECE;stroke:#CECECE;stroke-width:90.7087;stroke-miterlimit:10;}
	.st12{fill:#FFFFFF;stroke:#481A84;stroke-width:99.2126;stroke-miterlimit:10;}
	.st13{fill:#CECECE;stroke:#CECECE;stroke-width:8.5039;stroke-miterlimit:10;}
	.st14{fill:#FFFFFF;stroke:#481A84;stroke-width:22.6772;stroke-miterlimit:10;}
	.st15{fill:#4F268E;}
	.st16{fill:#6424AA;stroke:#481A84;stroke-width:22.6772;stroke-miterlimit:10;}
	.st17{clip-path:url(#SVGID_6_);fill:#6D38B2;}
	.st18{clip-path:url(#SVGID_8_);fill:#4F268E;}
	.st19{fill:#D9C6F7;}
	.st20{fill:none;stroke:#481A84;stroke-width:17.0079;stroke-miterlimit:10;}
	.st21{clip-path:url(#SVGID_10_);fill:#6D38B2;}
	.st22{clip-path:url(#SVGID_12_);fill:#4F268E;}
	.st23{clip-path:url(#SVGID_14_);fill:#6D38B2;}
	.st24{clip-path:url(#SVGID_16_);fill:#4F268E;}
	.st25{fill:#6424AA;stroke:#481A84;stroke-width:28;stroke-miterlimit:10;}
	.st26{fill:none;stroke:#481A84;stroke-width:28;stroke-miterlimit:10;}
	.st27{clip-path:url(#SVGID_18_);fill:#6D38B2;}
	.st28{clip-path:url(#SVGID_20_);fill:#4F268E;}
	.st29{display:none;}
	.st30{display:inline;fill:#CECECE;stroke:#CECECE;stroke-width:39.685;stroke-miterlimit:10;}
	.st31{display:inline;fill:#6424AA;stroke:#481A84;stroke-width:34.0157;stroke-miterlimit:10;}
	.st32{display:inline;}
	.st33{clip-path:url(#SVGID_22_);fill:#6D38B2;}
	.st34{clip-path:url(#SVGID_24_);fill:#4F268E;}
	.st35{display:inline;fill:#D9C6F7;}
	.st36{display:inline;fill:none;stroke:#481A84;stroke-width:34.0157;stroke-miterlimit:10;}
	.st37{fill:#6424AA;stroke:#481A84;stroke-width:99.2126;stroke-miterlimit:10;}
	.st38{clip-path:url(#SVGID_26_);fill:#6D38B2;}
	.st39{clip-path:url(#SVGID_28_);fill:#4F268E;}
	.st40{fill:none;stroke:#481A84;stroke-width:99.2126;stroke-miterlimit:10;}
	.st41{fill:#CECECE;stroke:#CECECE;stroke-width:28.3465;stroke-miterlimit:10;}
	.st42{fill:#FFFFFF;stroke:#481A84;stroke-width:28.3465;stroke-miterlimit:10;}
	.st43{fill:#6424AA;stroke:#481A84;stroke-width:34.0157;stroke-miterlimit:10;}
	.st44{clip-path:url(#SVGID_30_);fill:#6D38B2;}
	.st45{clip-path:url(#SVGID_32_);fill:#4F268E;}
	.st46{fill:none;stroke:#481A84;stroke-width:34.0157;stroke-miterlimit:10;}
</style>
<g>
	<path class="st41" d="M2149.6,675.7c7.5-31,17.7-61.2,36.7-86.5c28.9-38.6,74.1-60.8,117.9-80.8c43.8-20.1,89.4-40.5,120.8-77.1
		s43.6-94.5,14.2-132.7c-40.8-53-122.6-34.9-189.1-42.2c-89.7-9.9-168.4-75.2-258.6-74.1c-115.8,1.4-199.5,108.3-258.3,208
		c-60.2,102-113.8,207.8-160.6,316.6c-31.7,73.7-61.9,151.4-120.7,206c-52.4,48.7-122.1,73.7-190.6,94.4
		c-368.1,110.9-907.9,146.4-1052,573.4c-52.3,154.9-46.2,330.9,26.5,478.4c4.4,9,9.6,18.4,18.6,22.9c29.3,14.4,50.4-33.9,81.2-44.6
		c28.8-10,57.3,15.7,73.9,41.2s32.9,56.2,62.5,63.5c49.1,12.1,84-47.6,94.3-97.1c29.9-144.4,6.9-299.1-63.8-428.5
		c77.3,30.4,91.1,136.5,154.4,190.3c31.6,26.9,73.2,38.5,113.7,47.2c87,18.9,176.2,28.2,265.2,27.7c27.7-0.2,56.4-1.5,81.4-13.4
		c37.1-17.7,59.8-55.1,82.4-89.4c78.7-119.4,181.3-223,299.8-303c-130.5,152.3-235.1,326.6-308,513.4c-10.3,26.3-17.7,61.4,4.8,78.4
		c14.5,11,34.8,8.4,52.7,4.7c151.9-31.3,295.2-103.4,411-206.6c47.7-42.6,97.4-93.3,161.3-96c29.7-1.3,58.6,8.4,87,17
		c115,34.9,234.7,54.7,354.8,58.8c18.3,0.6,39.6-0.6,50.2-15.4c13-18.2,1.1-43.3-11.8-61.6c-44-62.6-99.4-117.2-162.6-160.3
		c-55.1-37.6-121.8-73.9-136.6-138.9c-7-30.4-0.8-62.2,5.4-92.8c44.6-221.2,89.3-442.4,133.9-663.6
		C2144.1,700.7,2146.6,688.1,2149.6,675.7z"/>
	<path class="st42" d="M2112.5,633.2c7.5-31,17.7-61.2,36.7-86.5c28.9-38.6,74.1-60.8,117.9-80.8s89.4-40.5,120.8-77.1
		c31.3-36.6,43.6-94.5,14.2-132.7c-40.8-53-122.6-34.9-189.1-42.2c-89.7-9.9-168.4-75.2-258.6-74.1
		c-115.8,1.4-199.5,108.3-258.3,208c-60.2,102-113.8,207.8-160.6,316.6c-31.7,73.7-61.9,151.4-120.7,206
		c-52.4,48.7-122.1,73.7-190.6,94.4c-368.1,110.9-907.9,146.4-1052,573.4c-52.3,154.9-46.2,330.9,26.5,478.4
		c4.4,9,9.6,18.4,18.6,22.9c29.3,14.4,50.4-33.9,81.2-44.6c28.8-10,57.3,15.7,73.9,41.2c16.6,25.6,32.9,56.2,62.5,63.5
		c49.1,12.1,84-47.6,94.3-97.1c29.9-144.4,6.9-299.1-63.8-428.5c77.3,30.4,91.1,136.5,154.4,190.3c31.6,26.9,73.2,38.5,113.7,47.2
		c87,18.9,176.2,28.2,265.2,27.7c27.7-0.2,56.4-1.5,81.4-13.4c37.1-17.7,59.8-55.1,82.4-89.4c78.7-119.4,181.3-223,299.8-303
		c-130.5,152.3-235.1,326.6-308,513.4c-10.3,26.3-17.7,61.4,4.8,78.4c14.5,11,34.8,8.4,52.7,4.7c151.9-31.3,295.2-103.4,411-206.6
		c47.7-42.6,97.4-93.3,161.3-96c29.7-1.3,58.6,8.4,87,17c115,34.9,234.7,54.7,354.8,58.8c18.3,0.6,39.6-0.6,50.2-15.4
		c13-18.2,1.1-43.3-11.8-61.6c-44-62.6-99.4-117.2-162.6-160.3c-55.1-37.6-121.8-73.9-136.6-138.9c-7-30.4-0.8-62.2,5.4-92.8
		c44.6-221.2,89.3-442.4,133.9-663.6C2107,658.1,2109.5,645.6,2112.5,633.2z M1937.9,361.8c-28.7,1.5-48.2-14.6-50.1-43.3
		c-2.1-31.6,15.9-51.7,47.7-51.8c28.3-0.1,45,17.2,47.5,46.4C1981.7,342.1,1966.8,360.3,1937.9,361.8z"/>
</g>
</svg>
