<?xml version="1.0" encoding="utf-8"?>
<!-- Generator: Adobe Illustrator 19.1.0, SVG Export Plug-In . SVG Version: 6.00 Build 0)  -->
<svg version="1.1" id="Camada_1" xmlns="http://www.w3.org/2000/svg" xmlns:xlink="http://www.w3.org/1999/xlink" x="0px" y="0px"
	 viewBox="0 0 359.8 309.5" style="enable-background:new 0 0 359.8 309.5;" xml:space="preserve">
<style type="text/css">
	.st0{fill:none;stroke:#000000;stroke-width:14.1732;stroke-miterlimit:10;}
	.st1{fill:#FFFFFF;}
	.st2{fill:none;stroke:#6424AA;stroke-width:9;stroke-miterlimit:10;}
	.st3{fill-rule:evenodd;clip-rule:evenodd;fill:#FFFFFF;}
	.st4{fill:none;stroke:#6424AA;stroke-width:11.3386;stroke-miterlimit:10;}
	.st5{clip-path:url(#SVGID_4_);fill:#6424AA;}
	.st6{clip-path:url(#SVGID_6_);fill:#B64185;}
	.st7{clip-path:url(#SVGID_8_);fill:#78CEE0;}
	.st8{clip-path:url(#SVGID_10_);fill:#B8E63C;}
	.st9{opacity:0;clip-path:url(#SVGID_12_);}
	.st10{opacity:0;}
	.st11{clip-path:url(#SVGID_14_);}
	.st12{clip-path:url(#SVGID_12_);}
	.st13{clip-path:url(#SVGID_18_);}
	.st14{fill:#78CEE0;}
	.st15{fill:url(#SVGID_21_);}
	.st16{fill:#6424AA;}
	.st17{fill:#B8E63C;}
	.st18{fill:url(#SVGID_22_);}
	.st19{fill:url(#SVGID_23_);}
	.st20{fill:url(#SVGID_24_);}
	.st21{fill:none;stroke:#6424AA;stroke-width:5.6693;stroke-miterlimit:10;}
	.st22{fill:#6424AA;stroke:#6424AA;stroke-width:2.8346;stroke-miterlimit:10;}
	.st23{fill:none;stroke:#000000;stroke-width:6;stroke-miterlimit:10;}
	.st24{fill:url(#SVGID_25_);}
	.st25{fill:url(#SVGID_26_);}
	.st26{fill:#6424AA;stroke:#6424AA;stroke-miterlimit:10;}
	.st27{fill:#6424AA;stroke:#6424AA;stroke-width:1.4173;stroke-miterlimit:10;}
	.st28{fill:url(#SVGID_27_);}
	.st29{fill:url(#SVGID_28_);}
	.st30{fill:#C0A435;}
	.st31{fill:#C1A437;}
	.st32{fill:#C3A73E;}
	.st33{fill:#C3A73D;}
	.st34{fill:#C3A840;}
	.st35{fill:#C2A73C;}
	.st36{fill:#C4A941;}
	.st37{fill:#C5AB44;}
	.st38{fill:#C3A83F;}
	.st39{fill:#C4A942;}
	.st40{fill:#C2A63A;}
	.st41{fill:#C7AD4B;}
	.st42{fill:#C5AB46;}
	.st43{fill:#CCB55C;}
	.st44{fill:#C8AF4E;}
	.st45{fill:#D8C783;}
	.st46{fill:#C1A639;}
	.st47{fill:#F5F2E3;}
	.st48{fill:#D1BC6C;}
	.st49{fill:#EDE6C7;}
	.st50{fill:#F6F4E8;}
	.st51{fill:#F8F5EB;}
	.st52{fill:#F9F6EE;}
	.st53{fill:#F9F8F0;}
	.st54{fill:#E3D6A7;}
	.st55{fill:#D7C57F;}
	.st56{fill:#FAF9F3;}
	.st57{fill:#FDFDFC;}
	.st58{fill:#FDFDFB;}
	.st59{fill:#C0A335;}
	.st60{fill:url(#SVGID_29_);}
	.st61{fill:url(#SVGID_30_);}
	.st62{clip-path:url(#SVGID_32_);}
	.st63{clip-path:url(#SVGID_34_);fill:none;stroke:#6424A9;stroke-width:12;stroke-miterlimit:10;}
	.st64{clip-path:url(#SVGID_36_);fill:#FFFFFF;}
	.st65{opacity:0;clip-path:url(#SVGID_38_);}
	.st66{clip-path:url(#SVGID_40_);}
	.st67{clip-path:url(#SVGID_38_);}
	.st68{clip-path:url(#SVGID_44_);}
	.st69{fill:none;stroke:#6424A9;stroke-width:5.669;stroke-miterlimit:10;}
	.st70{clip-path:url(#SVGID_48_);fill:#6424A9;}
	.st71{fill:none;stroke:#6424A9;stroke-width:2.835;stroke-miterlimit:10;}
	.st72{clip-path:url(#SVGID_50_);fill:#6424A9;}
	.st73{clip-path:url(#SVGID_52_);fill:#6424A9;}
	.st74{clip-path:url(#SVGID_54_);fill:none;stroke:#6424A9;stroke-width:12;stroke-miterlimit:10;}
	.st75{clip-path:url(#SVGID_56_);fill:#FFFFFF;}
	.st76{clip-path:url(#SVGID_58_);fill:#78CDDE;}
	.st77{clip-path:url(#SVGID_60_);fill:#6424A9;}
	.st78{clip-path:url(#SVGID_62_);fill:#6424A9;}
	.st79{clip-path:url(#SVGID_64_);fill:#6424A9;}
	.st80{clip-path:url(#SVGID_66_);fill:none;stroke:#6424A9;stroke-width:12;stroke-miterlimit:10;}
	.st81{clip-path:url(#SVGID_68_);fill:#FFFFFF;}
	.st82{clip-path:url(#SVGID_70_);fill:#6424A9;}
	.st83{clip-path:url(#SVGID_72_);fill:#6424A9;}
	.st84{clip-path:url(#SVGID_74_);enable-background:new    ;}
	.st85{clip-path:url(#SVGID_76_);}
	.st86{clip-path:url(#SVGID_78_);}
	.st87{opacity:0;clip-path:url(#SVGID_80_);}
	.st88{clip-path:url(#SVGID_82_);}
	.st89{clip-path:url(#SVGID_80_);}
	.st90{clip-path:url(#SVGID_86_);}
	.st91{fill:url(#SVGID_89_);}
	.st92{fill:url(#SVGID_90_);}
	.st93{fill:#75B9CB;}
	.st94{fill:#583284;}
</style>
<path class="st1" d="M222.2,115.4c0.4-1.6,0.9-3.1,1.9-4.4c1.5-2,3.8-3.1,6-4.1c2.2-1,4.5-2.1,6.1-3.9c1.6-1.9,2.2-4.8,0.7-6.7
	c-2.1-2.7-6.2-1.8-9.6-2.1c-4.6-0.5-8.6-3.8-13.1-3.8c-5.9,0.1-10.1,5.5-13.1,10.6c-3.1,5.2-5.8,10.6-8.2,16.1
	c-1.6,3.7-3.1,7.7-6.1,10.5c-2.7,2.5-6.2,3.7-9.7,4.8c-18.7,5.6-46.1,7.4-53.4,29.1c-2.7,7.9-2.3,16.8,1.3,24.3
	c0.2,0.5,0.5,0.9,0.9,1.2c1.5,0.7,2.6-1.7,4.1-2.3c1.5-0.5,2.9,0.8,3.8,2.1c0.8,1.3,1.7,2.9,3.2,3.2c2.5,0.6,4.3-2.4,4.8-4.9
	c1.5-7.3,0.3-15.2-3.2-21.8c3.9,1.5,4.6,6.9,7.8,9.7c1.6,1.4,3.7,2,5.8,2.4c4.4,1,8.9,1.4,13.5,1.4c1.4,0,2.9-0.1,4.1-0.7
	c1.9-0.9,3-2.8,4.2-4.5c4-6.1,9.2-11.3,15.2-15.4c-6.6,7.7-11.9,16.6-15.6,26.1c-0.5,1.3-0.9,3.1,0.2,4c0.7,0.6,1.8,0.4,2.7,0.2
	c7.7-1.6,15-5.3,20.9-10.5c2.4-2.2,4.9-4.7,8.2-4.9c1.5-0.1,3,0.4,4.4,0.9c5.8,1.8,11.9,2.8,18,3c0.9,0,2,0,2.5-0.8
	c0.7-0.9,0.1-2.2-0.6-3.1c-2.2-3.2-5-6-8.3-8.1c-2.8-1.9-6.2-3.8-6.9-7.1c-0.4-1.5,0-3.2,0.3-4.7c2.3-11.2,4.5-22.5,6.8-33.7
	C221.9,116.7,222,116,222.2,115.4z M213.3,101.6c-1.5,0.1-2.4-0.7-2.5-2.2c-0.1-1.6,0.8-2.6,2.4-2.6c1.4,0,2.3,0.9,2.4,2.4
	C215.5,100.6,214.8,101.5,213.3,101.6z"/>
<path class="st16" d="M95,84.9c19.3-7.7,36-14.5,57.3-23c13.2,7.2,32.5,10.5,47.7-0.7c19.6,8.3,36.7,15.6,56.2,23.9
	c13.7,53-19.2,126.8-71.6,152.1c-5.3,2.5-14.3,1.5-19.8-1.3c-49.4-25.3-65.7-70.1-69.8-121.5C94.3,103.7,95,93,95,84.9z"/>
</svg>
